<svg width="102" height="90" viewBox="0 0 102 90" fill="none" xmlns="http://www.w3.org/2000/svg">
<path fill-rule="evenodd" clip-rule="evenodd" d="M11.401 0.883124C10.601 1.07973 9.0912 1.66481 8.04605 2.18382C6.44155 2.98033 5.86755 3.40717 4.35799 4.92722C2.3306 6.96884 1.50818 8.2456 0.619688 10.7305C0.033625 12.3696 0 12.6184 0 15.3314C0 18.0443 0.033625 18.2931 0.619688 19.9323C1.506 22.411 2.32744 23.6872 4.35858 25.7399C5.93975 27.3378 6.38597 27.6624 8.21556 28.544C9.35347 29.0925 10.9251 29.6817 11.708 29.8536C13.713 30.2935 16.4907 30.2571 18.4118 29.7658C22.4648 28.7293 25.1655 26.7443 27.6994 22.9391C28.9402 21.0759 29.4052 20.55 30.3981 19.887C32.4415 18.5224 33.137 18.3972 38.6679 18.3972C44.1988 18.3972 44.8942 18.5224 46.9377 19.887C47.9306 20.55 48.3956 21.0759 49.6364 22.9391C51.6105 25.9034 53.3923 27.5093 56.1272 28.7891C63.4497 32.2154 72.3013 29.0494 75.7795 21.7597C77.732 17.6679 77.732 12.9948 75.7795 8.90307C72.3013 1.61338 63.4497 -1.55271 56.1272 1.87368C53.3958 3.15182 51.6103 4.75949 49.6457 7.70978C47.9957 10.1873 47.0144 11.0335 44.8984 11.8037C43.8562 12.1829 43.2005 12.246 39.5178 12.3219C32.0746 12.4752 30.4873 11.853 27.685 7.68209C25.1497 3.90897 22.4419 1.92767 18.4118 0.89697C16.4145 0.386068 13.4488 0.380332 11.401 0.883124ZM65.3701 15.3314V18.2983H62.4032H59.4362V15.3314V12.3645H62.4032H65.3701V15.3314ZM35.1076 30.5708C25.9391 32.9382 21.2365 42.9305 25.2915 51.4287C28.7697 58.7184 37.6214 61.8845 44.9439 58.4581C47.6788 57.1784 49.4605 55.5725 51.4347 52.6082C52.6755 50.745 53.1405 50.219 54.1334 49.556C56.1768 48.1914 56.8722 48.0662 62.4032 48.0662C67.9341 48.0662 68.6295 48.1914 70.6729 49.556C71.6658 50.219 72.1309 50.745 73.3716 52.6082C75.9055 56.4133 78.6062 58.3984 82.6592 59.4348C84.5804 59.9262 87.358 59.9625 89.363 59.5227C90.1459 59.3508 91.7176 58.7615 92.8555 58.2131C94.6851 57.3315 95.1313 57.0069 96.7125 55.4089C98.7436 53.3562 99.565 52.0801 100.451 49.6013C101.037 47.9622 101.071 47.7134 101.071 45.0004C101.071 42.2875 101.037 42.0387 100.451 40.3996C99.5619 37.9119 98.7402 36.6375 96.7022 34.5856C95.1167 32.9892 94.6598 32.6571 92.845 31.7827C91.7128 31.2372 90.1459 30.6501 89.363 30.4782C87.358 30.0383 84.5804 30.0747 82.6592 30.566C78.6114 31.6013 75.9052 33.5883 73.3809 37.3788C71.7309 39.8564 70.7497 40.7026 68.6337 41.4728C67.5915 41.852 66.9358 41.9151 63.2531 41.991C55.8099 42.1443 54.2226 41.522 51.4203 37.3512C48.8849 33.578 46.1771 31.5967 42.1471 30.566C40.0888 30.0397 37.1569 30.0417 35.1076 30.5708ZM41.6348 45.0004V47.9673H38.6679H35.701V45.0004V42.0335H38.6679H41.6348V45.0004ZM11.401 60.2213C10.601 60.4179 9.0912 61.0029 8.04605 61.5219C6.44155 62.3185 5.86755 62.7453 4.35799 64.2654C2.3306 66.307 1.50818 67.5837 0.619688 70.0686C0.033625 71.7077 0 71.9566 0 74.6695C0 77.3824 0.033625 77.6313 0.619688 79.2704C1.506 81.7491 2.32744 83.0253 4.35858 85.078C5.93975 86.676 6.38597 87.0006 8.21556 87.8821C9.35347 88.4306 10.9251 89.0198 11.708 89.1917C13.713 89.6316 16.4907 89.5952 18.4118 89.1039C22.4648 88.0675 25.1655 86.0824 27.6994 82.2773C28.9402 80.414 29.4052 79.8881 30.3981 79.2251C32.4415 77.8605 33.137 77.7353 38.6679 77.7353C44.1988 77.7353 44.8942 77.8605 46.9377 79.2251C47.9306 79.8881 48.3956 80.414 49.6364 82.2773C51.6105 85.2416 53.3923 86.8475 56.1272 88.1272C63.4497 91.5536 72.3013 88.3875 75.7795 81.0978C77.732 77.006 77.732 72.333 75.7795 68.2412C72.3013 60.9515 63.4497 57.7854 56.1272 61.2118C53.3958 62.49 51.6103 64.0976 49.6457 67.0479C47.9957 69.5255 47.0144 70.3716 44.8984 71.1419C43.8562 71.521 43.2005 71.5841 39.5178 71.6601C32.0746 71.8134 30.4873 71.1911 27.685 67.0202C25.1497 63.2471 22.4419 61.2658 18.4118 60.2351C16.4145 59.7242 13.4488 59.7185 11.401 60.2213ZM65.3701 74.6695V77.6364H62.4032H59.4362V74.6695V71.7026H62.4032H65.3701V74.6695Z" fill="url(#paint0_linear_335_9693)"/>
<defs>
<linearGradient id="paint0_linear_335_9693" x1="-6.31203" y1="45.0004" x2="214.299" y2="45.0004" gradientUnits="userSpaceOnUse">
<stop stop-color="#8932F6"/>
<stop offset="1" stop-color="#1B152B" stop-opacity="0"/>
</linearGradient>
</defs>
</svg>
